ply
format ascii 1.0
comment VCGLIB generated
element vertex 12
property float x
property float y
property float z
property float nx
property float ny
property float nz
property uchar red
property uchar green
property uchar blue
property uchar alpha
element face 4
property list uchar int vertex_indices
end_header
0.02074601 0.3555815 0 0.8237631 0.5201848 0.2254374 150 150 150 255 
0.02074601 0.03172675 0.7472775 0.8237631 0.5201848 0.2254374 255 255 0 255 
0.3275047 -0.1302007 0 0.8237631 0.5201848 0.2254374 255 255 0 255 
0.02074601 0.3555815 0 0 0 -1 150 150 150 255 
0.3275047 -0.1302007 0 0 0 -1 150 150 150 255 
-0.2860127 -0.1302006 0 0 0 -1 150 150 150 255 
0.3275047 -0.1302007 0 -6.352979e-08 -0.9773185 0.2117749 150 150 150 255 
0.02074601 0.03172675 0.7472775 -6.352979e-08 -0.9773185 0.2117749 150 150 150 255 
-0.2860127 -0.1302006 0 -6.352979e-08 -0.9773185 0.2117749 150 150 150 255 
-0.2860127 -0.1302006 0 -0.8237631 0.5201849 0.2254375 150 150 150 255 
0.02074601 0.03172675 0.7472775 -0.8237631 0.5201849 0.2254375 150 150 150 255 
0.02074601 0.3555815 0 -0.8237631 0.5201849 0.2254375 150 150 150 255 
3 0 1 2 
3 3 4 5 
3 6 7 8 
3 9 10 11 
