ply
format ascii 1.0
comment VCGLIB generated
element vertex 24
property float x
property float y
property float z
property float nx
property float ny
property float nz
property uchar red
property uchar green
property uchar blue
property uchar alpha
property float texture_u
property float texture_v
element face 12
property list uchar int vertex_indices
end_header
41.02126 0.046968 -30.52574 0.9999999 -0 0 150 150 150 255 -14.327364 11.704339
41.02126 0 30.52005 0.9999999 -0 0 150 150 150 255 -14.272305 8.549585
41.02126 0 -30.52574 0.9999999 -0 0 150 150 150 255 -14.272305 11.705258
41.02126 0.046968 30.52005 0 -0 1 150 150 150 255 -14.460415 12.183897
-39.98765 0 30.52005 0 -0 1 150 150 150 255 -14.396989 8.549737
41.02126 0 30.52005 0 -0 1 150 150 150 255 -14.396989 12.184967
-39.98765 0.046968 30.52005 -0.9999999 0 0 150 150 150 255 -14.334647 8.549585
-39.98765 0 -30.52574 -0.9999999 0 0 150 150 150 255 -14.389706 11.704339
-39.98765 0 30.52005 -0.9999999 0 0 150 150 150 255 -14.389706 8.548667
-39.98765 0.046968 -30.52574 0 0 -1 150 150 150 255 -14.531123 12.183897
41.02126 0 -30.52574 0 0 -1 150 150 150 255 -14.467698 8.549737
-39.98765 0 -30.52574 0 0 -1 150 150 150 255 -14.467698 12.184967
-39.98765 0 30.52005 -0 -1 -0 150 150 150 255 -14.531123 -11.400366
41.02126 0 -30.52574 -0 -1 -0 150 150 150 255 0.496359 8.541386
41.02126 0 30.52005 -0 -1 -0 150 150 150 255 -14.531123 8.541386
41.02126 0.046968 30.52005 -0 1 0 0 0 0 255 0.503642 -11.400366
-39.98765 0.046968 -30.52574 -0 1 0 150 150 150 255 15.531125 8.541386
-39.98765 0.046968 30.52005 -0 1 0 150 150 150 255 0.503642 8.541386
41.02126 0.046968 30.52005 0.9999999 -0 0 150 150 150 255 -14.327363 8.548667
-39.98765 0.046968 30.52005 0 0 1 150 150 150 255 -14.460414 8.548667
-39.98765 0.046968 -30.52574 -0.9999999 0 0 150 150 150 255 -14.334647 11.705258
41.02126 0.046968 -30.52574 0 0 -1 150 150 150 255 -14.531123 8.548667
-39.98765 0 -30.52574 0 -1 0 150 150 150 255 0.496359 -11.400366
41.02126 0.046968 -30.52574 0 1 0 150 150 150 255 15.531125 -11.400366
3 0 1 2 
3 3 4 5 
3 6 7 8 
3 9 10 11 
3 12 13 14 
3 15 16 17 
3 0 18 1 
3 3 19 4 
3 6 20 7 
3 9 21 10 
3 12 22 13 
3 15 23 16 
